<svg width="28" height="28" viewBox="0 0 28 28" fill="none" xmlns="http://www.w3.org/2000/svg">
<g filter="url(#filter0_d_38_13808)">
<path d="M14 0C7.37097 0 2 5.37097 2 12C2 18.629 7.37097 24 14 24C20.629 24 26 18.629 26 12C26 5.37097 20.629 0 14 0Z" fill="url(#paint0_linear_38_13808)"/>
</g>
<path d="M14.0887 4.64502C16.4403 4.64502 18.3468 6.55147 18.3468 8.90308C18.3468 11.2547 16.4403 13.1611 14.0887 13.1611C11.7371 13.1611 9.83065 11.2547 9.83065 8.90308C9.83065 6.55147 11.7371 4.64502 14.0887 4.64502ZM14.0887 21.2902C11.2484 21.2902 8.70323 20.0031 7 17.9902C7.90968 16.2773 9.69032 15.0966 11.7661 15.0966C11.8823 15.0966 11.9984 15.116 12.1097 15.1499C12.7387 15.3531 13.3968 15.4837 14.0887 15.4837C14.7806 15.4837 15.4435 15.3531 16.0677 15.1499C16.179 15.116 16.2952 15.0966 16.4113 15.0966C18.4871 15.0966 20.2677 16.2773 21.1774 17.9902C19.4742 20.0031 16.929 21.2902 14.0887 21.2902Z" fill="white"/>
<defs>
<filter id="filter0_d_38_13808" x="0" y="0" width="28" height="28" filterUnits="userSpaceOnUse" color-interpolation-filters="sRGB">
<feFlood flood-opacity="0" result="BackgroundImageFix"/>
<feColorMatrix in="SourceAlpha" type="matrix" values="0 0 0 0 0 0 0 0 0 0 0 0 0 0 0 0 0 0 127 0" result="hardAlpha"/>
<feOffset dy="2"/>
<feGaussianBlur stdDeviation="1"/>
<feComposite in2="hardAlpha" operator="out"/>
<feColorMatrix type="matrix" values="0 0 0 0 0.0705882 0 0 0 0 0.0745098 0 0 0 0 0.129412 0 0 0 0.15 0"/>
<feBlend mode="normal" in2="BackgroundImageFix" result="effect1_dropShadow_38_13808"/>
<feBlend mode="normal" in="SourceGraphic" in2="effect1_dropShadow_38_13808" result="shape"/>
</filter>
<linearGradient id="paint0_linear_38_13808" x1="2" y1="2.26415" x2="42.6642" y2="12.8584" gradientUnits="userSpaceOnUse">
<stop stop-color="#5449FD"/>
<stop offset="1" stop-color="#90F0FF"/>
</linearGradient>
</defs>
</svg>
