<svg width="541" height="118" viewBox="0 0 541 118" fill="none" xmlns="http://www.w3.org/2000/svg">
<path d="M431.58 90.7193C429.608 90.7193 427.931 90.016 426.55 88.6096C425.17 87.1362 424.479 85.3949 424.479 83.3857C424.479 81.3765 425.17 79.7022 426.55 78.3627C427.931 76.9563 429.608 76.2531 431.58 76.2531C433.618 76.2531 435.327 76.9563 436.708 78.3627C438.089 79.7022 438.779 81.3765 438.779 83.3857C438.779 85.4619 438.089 87.2032 436.708 88.6096C435.327 90.016 433.618 90.7193 431.58 90.7193Z" fill="#EDF936"/>
<path d="M447.891 89.6142V40.8913H458.246V47.3207C461.599 42.2308 466.596 39.6858 473.236 39.6858C479.087 39.6858 483.591 41.4271 486.747 44.9097C489.968 48.3253 491.579 53.1139 491.579 59.2754V89.6142H480.928V60.7823C480.928 52.8125 477.444 48.8276 470.475 48.8276C466.99 48.8276 464.13 49.8992 461.895 52.0423C459.66 54.1855 458.542 57.1992 458.542 61.0837V89.6142H447.891Z" fill="#EDF936"/>
<path d="M502.644 89.6142V19.6943H513.294V89.6142H502.644Z" fill="#EDF936"/>
<path d="M389.567 111.923C383.583 111.923 378.487 110.583 374.278 107.903C370.135 105.224 367.439 101.473 366.189 96.6494L375.56 92.8311C376.284 96.1135 377.862 98.6256 380.295 100.367C382.794 102.176 385.885 103.08 389.567 103.08C394.828 103.08 398.741 101.841 401.305 99.3624C403.87 96.9509 405.152 93.1661 405.152 88.008V80.8738C401.404 87.1037 395.847 90.2186 388.482 90.2186C382.169 90.2186 376.875 87.807 372.601 82.9839C368.327 78.0938 366.189 72.0649 366.189 64.8972C366.189 57.7295 368.294 51.7341 372.502 46.911C376.777 42.0878 382.07 39.6763 388.383 39.6763C395.88 39.6763 401.47 42.6237 405.152 48.5187V40.7816H415.509V88.008C415.509 95.6446 413.274 101.54 408.802 105.693C404.33 109.846 397.919 111.923 389.567 111.923ZM390.948 81.2757C394.894 81.2757 398.182 79.7015 400.812 76.5531C403.508 73.4047 404.856 69.5194 404.856 64.8972C404.856 60.208 403.508 56.3227 400.812 53.2413C398.182 50.0929 394.894 48.5187 390.948 48.5187C386.674 48.5187 383.32 49.9924 380.887 52.9399C378.519 55.8203 377.336 59.8061 377.336 64.8972C377.336 69.9883 378.552 74.0075 380.985 76.955C383.419 79.8355 386.739 81.2757 390.948 81.2757Z" fill="white"/>
<path d="M238.111 89.6142V40.8913H248.466V47.3207C251.819 42.2308 256.815 39.6858 263.456 39.6858C269.307 39.6858 273.811 41.4271 276.966 44.9097C280.188 48.3253 281.799 53.1139 281.799 59.2754V89.6142H271.148V60.7823C271.148 52.8125 267.663 48.8276 260.694 48.8276C257.21 48.8276 254.35 49.8992 252.115 52.0423C249.879 54.1855 248.762 57.1992 248.762 61.0837V89.6142H238.111Z" fill="white"/>
<path d="M298.189 32.6536C296.282 32.6536 294.704 32.0509 293.455 30.8453C292.206 29.6398 291.581 28.0995 291.581 26.2242C291.581 24.349 292.206 22.8086 293.455 21.6031C294.704 20.3306 296.282 19.6943 298.189 19.6943C300.029 19.6943 301.574 20.3306 302.824 21.6031C304.138 22.8086 304.796 24.349 304.796 26.2242C304.796 28.0325 304.138 29.5729 302.824 30.8453C301.574 32.0509 300.029 32.6536 298.189 32.6536ZM292.863 89.6142V40.8913H303.514V89.6142H292.863Z" fill="white"/>
<path d="M314.871 89.6142V40.8913H325.226V47.3207C328.579 42.2308 333.576 39.6858 340.216 39.6858C346.067 39.6858 350.571 41.4271 353.727 44.9097C356.948 48.3253 358.559 53.1139 358.559 59.2754V89.6142H347.908V60.7823C347.908 52.8125 344.424 48.8276 337.455 48.8276C333.97 48.8276 331.11 49.8992 328.875 52.0423C326.64 54.1855 325.522 57.1992 325.522 61.0837V89.6142H314.871Z" fill="white"/>
<path d="M222.9 83.5869C218.167 88.4089 212.217 90.82 205.05 90.82C197.884 90.82 191.901 88.4089 187.102 83.5869C182.368 78.7648 180.001 72.6368 180.001 65.2028C180.001 57.7688 182.368 51.6742 187.102 46.9191C191.901 42.0971 197.884 39.686 205.05 39.686C212.217 39.686 218.167 42.0971 222.9 46.9191C227.634 51.6742 230.001 57.7688 230.001 65.2028C230.001 72.6368 227.634 78.7648 222.9 83.5869ZM194.893 77.4588C197.457 80.4726 200.843 81.9795 205.05 81.9795C209.258 81.9795 212.611 80.4726 215.109 77.4588C217.674 74.445 218.956 70.3597 218.956 65.2028C218.956 60.1128 217.674 56.0609 215.109 53.0472C212.545 50.0334 209.192 48.5265 205.05 48.5265C200.843 48.5265 197.457 50.0334 194.893 53.0472C192.394 55.994 191.145 60.0458 191.145 65.2028C191.145 70.3597 192.394 74.445 194.893 77.4588Z" fill="white"/>
<path fill-rule="evenodd" clip-rule="evenodd" d="M159.18 12.2629C161.059 7.63755 164.579 2.48349 170.89 2.48437C174.759 2.48491 177.627 4.50791 179.445 7.1934C181.126 9.67811 181.96 12.7486 182.38 15.5714C183.227 21.2604 182.66 27.8165 181.686 32.1015C180.314 38.1408 177.127 44.946 171.918 49.8553C169.618 52.0234 166.932 53.8039 163.896 54.9689C163.898 57.2429 163.912 59.416 163.926 61.4347C163.938 63.2804 163.949 64.997 163.949 66.5437C163.949 74.0923 165.938 78.4947 167.921 80.2219C168.787 80.9767 169.728 81.3139 170.889 81.2458C172.155 81.1716 173.998 80.5854 176.391 78.8411L181.857 86.6212C178.489 89.0766 174.968 90.5902 171.429 90.7976C167.785 91.0111 164.477 89.8116 161.816 87.493C156.743 83.0736 154.557 75.1826 154.557 66.5437C154.557 65.1044 154.546 63.4705 154.533 61.6861C154.522 60.0515 154.51 58.2906 154.505 56.4372C153.028 56.3636 151.5 56.1554 149.921 55.7976L151.962 46.4585C152.864 46.6631 153.732 46.7932 154.568 46.8552C154.671 41.2638 154.918 35.3953 155.464 29.9224C156.109 23.4718 157.205 17.125 159.18 12.2629ZM164.025 44.1076C164.552 43.7147 165.056 43.288 165.54 42.8325C169.07 39.5055 171.487 34.562 172.536 29.9439C173.293 26.6105 173.732 21.2899 173.094 17.0066C172.772 14.8431 172.24 13.4035 171.712 12.6245C171.325 12.0519 171.14 12.0519 170.895 12.0519L170.888 12.0519C170.619 12.0519 169.395 12.1407 167.859 15.9217C166.419 19.4658 165.428 24.6888 164.808 30.8911C164.383 35.1505 164.149 39.6615 164.025 44.1076Z" fill="white"/>
<path d="M108.857 89.6159V40.893H119.212V49.3316C121.842 43.1701 126.378 40.0894 132.821 40.0894C136.634 40.0894 139.79 41.3618 142.288 43.9068C144.787 46.4518 146.036 49.8674 146.036 54.1537C146.036 56.5647 145.609 59.0762 144.754 61.6882L134.991 60.6836C135.254 58.6744 135.385 57.3349 135.385 56.6652C135.385 51.6422 133.347 49.1307 129.271 49.1307C126.51 49.1307 124.176 50.6376 122.269 53.6514C120.428 56.5982 119.508 60.5161 119.508 65.4052V89.6159H108.857Z" fill="white"/>
<path d="M93.4907 72.3354L101.873 77.057C97.3368 86.2323 89.8747 90.82 79.487 90.82C72.1892 90.82 66.1735 88.4759 61.4398 83.7878C56.7062 79.0327 54.3394 72.8377 54.3394 65.2028C54.3394 57.7018 56.6404 51.5738 61.2426 46.8187C65.9105 42.0636 71.7619 39.686 78.7966 39.686C85.7656 39.686 91.2554 41.9631 95.2658 46.5173C99.3421 51.0045 101.38 56.9986 101.38 64.4995C101.38 66.1739 101.347 67.2454 101.282 67.7143H65.5818C65.9105 72.1345 67.2912 75.6171 69.7238 78.1621C72.2221 80.707 75.5094 81.9795 79.5856 81.9795C85.5684 81.9795 90.2034 78.7648 93.4907 72.3354ZM78.5008 48.2251C75.0163 48.2251 72.1235 49.2967 69.8224 51.4398C67.5213 53.5829 66.1406 56.5298 65.6804 60.2802H90.4335C90.1048 56.3958 88.9214 53.4155 86.8833 51.3393C84.9109 49.2632 82.1168 48.2251 78.5008 48.2251Z" fill="white"/>
<path fill-rule="evenodd" clip-rule="evenodd" d="M48.191 61.2455C43.7008 71.6119 35.491 83.7569 25.2163 88.9362L21.2439 90.9386L1.04205 53.5778L9.19493 48.8881L24.8696 77.8765C30.8255 73.2443 36.241 65.2295 39.6678 57.3182C41.7061 52.6124 42.8112 48.4545 42.9987 45.6662C43.0437 44.9968 43.0303 44.4789 42.9887 44.1006C42.9486 43.7353 42.8908 43.5795 42.8869 43.5689C42.8867 43.5683 42.8867 43.5685 42.8869 43.5689C42.9778 43.7838 43.4681 44.4104 44.2401 44.5141L45.4466 34.9667C48.4204 35.3665 50.4366 37.3394 51.4428 39.718C52.3324 41.8208 52.4545 44.2048 52.3114 46.3323C52.0192 50.6774 50.4655 55.9943 48.191 61.2455Z" fill="white"/>
<path fill-rule="evenodd" clip-rule="evenodd" d="M27.5996 51.3296C27.5908 42.3546 35.6862 33.6483 45.4862 34.9658L44.2796 44.5133C40.5878 44.0169 36.931 47.6094 36.9347 51.3199C36.9361 52.7683 37.0481 54.7892 39.3863 56.3674C40.4998 57.1189 42.126 57.9736 44.2796 58.6867C46.2606 59.3426 48.6878 59.8788 51.5724 60.1046L48.6837 67.6812C42.9465 67.1544 38.4868 65.7613 35.03 63.4281C30.2266 60.186 27.6044 56.2239 27.5996 51.3296Z" fill="white"/>
</svg>
