<svg width="144" height="32" viewBox="0 0 144 32" fill="none" xmlns="http://www.w3.org/2000/svg">
<path d="M114.875 24.6018C114.35 24.6018 113.904 24.4111 113.537 24.0296C113.169 23.6301 112.985 23.1579 112.985 22.613C112.985 22.0681 113.169 21.6141 113.537 21.2508C113.904 20.8694 114.35 20.6787 114.875 20.6787C115.418 20.6787 115.873 20.8694 116.24 21.2508C116.608 21.6141 116.792 22.0681 116.792 22.613C116.792 23.176 116.608 23.6482 116.24 24.0296C115.873 24.4111 115.418 24.6018 114.875 24.6018Z" fill="#FF006B"/>
<path d="M119.217 24.3021V11.0891H121.973V12.8327C122.866 11.4523 124.196 10.7622 125.963 10.7622C127.521 10.7622 128.719 11.2344 129.559 12.1788C130.417 13.1051 130.845 14.4037 130.845 16.0746V24.3021H128.011V16.4833C128.011 14.322 127.083 13.2413 125.228 13.2413C124.301 13.2413 123.539 13.5319 122.944 14.1131C122.349 14.6943 122.052 15.5116 122.052 16.565V24.3021H119.217Z" fill="#FF006B"/>
<path d="M133.791 24.3021V5.34076H136.626V24.3021H133.791Z" fill="#FF006B"/>
<path d="M103.693 30.3519C102.1 30.3519 100.743 29.9886 99.6232 29.2619C98.5204 28.5353 97.8028 27.518 97.4702 26.21L99.9645 25.1745C100.157 26.0647 100.577 26.7459 101.225 27.2182C101.89 27.7087 102.713 27.9539 103.693 27.9539C105.093 27.9539 106.134 27.6179 106.817 26.9457C107.5 26.2917 107.841 25.2654 107.841 23.8666V21.9319C106.843 23.6213 105.364 24.466 103.404 24.466C101.724 24.466 100.315 23.8121 99.1768 22.5041C98.0391 21.178 97.4702 19.543 97.4702 17.5992C97.4702 15.6554 98.0303 14.0296 99.1506 12.7216C100.288 11.4136 101.697 10.7596 103.378 10.7596C105.373 10.7596 106.861 11.559 107.841 13.1576V11.0594H110.598V23.8666C110.598 25.9375 110.003 27.5361 108.813 28.6624C107.622 29.7887 105.916 30.3519 103.693 30.3519ZM104.06 22.0409C105.111 22.0409 105.986 21.6139 106.686 20.7601C107.403 19.9063 107.762 18.8527 107.762 17.5992C107.762 16.3276 107.403 15.2739 106.686 14.4383C105.986 13.5845 105.111 13.1576 104.06 13.1576C102.923 13.1576 102.03 13.5572 101.382 14.3566C100.752 15.1377 100.437 16.2186 100.437 17.5992C100.437 18.9798 100.761 20.0698 101.409 20.8691C102.056 21.6503 102.94 22.0409 104.06 22.0409Z" fill="white"/>
<path d="M63.3789 24.3021V11.0891H66.1351V12.8327C67.0276 11.4523 68.3576 10.7622 70.125 10.7622C71.6825 10.7622 72.8812 11.2344 73.7212 12.1788C74.5787 13.1051 75.0075 14.4037 75.0075 16.0746V24.3021H72.1725V16.4833C72.1725 14.322 71.245 13.2413 69.3901 13.2413C68.4626 13.2413 67.7013 13.5319 67.1063 14.1131C66.5114 14.6943 66.2139 15.5116 66.2139 16.565V24.3021H63.3789Z" fill="white"/>
<path d="M79.37 8.85514C78.8625 8.85514 78.4425 8.69168 78.11 8.36476C77.7775 8.03784 77.6113 7.62011 77.6113 7.11157C77.6113 6.60303 77.7775 6.1853 78.11 5.85838C78.4425 5.5133 78.8625 5.34076 79.37 5.34076C79.86 5.34076 80.2712 5.5133 80.6037 5.85838C80.9537 6.1853 81.1287 6.60303 81.1287 7.11157C81.1287 7.60195 80.9537 8.01968 80.6037 8.36476C80.2712 8.69168 79.86 8.85514 79.37 8.85514ZM77.9525 24.3021V11.0891H80.7875V24.3021H77.9525Z" fill="white"/>
<path d="M83.8105 24.3021V11.0891H86.5667V12.8327C87.4592 11.4523 88.7891 10.7622 90.5566 10.7622C92.1141 10.7622 93.3128 11.2344 94.1528 12.1788C95.0103 13.1051 95.439 14.4037 95.439 16.0746V24.3021H92.6041V16.4833C92.6041 14.322 91.6766 13.2413 89.8216 13.2413C88.8941 13.2413 88.1329 13.5319 87.5379 14.1131C86.9429 14.6943 86.6454 15.5116 86.6454 16.565V24.3021H83.8105Z" fill="white"/>
<path d="M59.3302 22.6676C58.0702 23.9753 56.4865 24.6292 54.579 24.6292C52.6715 24.6292 51.0791 23.9753 49.8016 22.6676C48.5416 21.36 47.9116 19.6981 47.9116 17.6821C47.9116 15.6661 48.5416 14.0134 49.8016 12.7238C51.0791 11.4162 52.6715 10.7623 54.579 10.7623C56.4865 10.7623 58.0702 11.4162 59.3302 12.7238C60.5901 14.0134 61.2201 15.6661 61.2201 17.6821C61.2201 19.6981 60.5901 21.36 59.3302 22.6676ZM51.8753 21.0058C52.5578 21.8231 53.459 22.2317 54.579 22.2317C55.699 22.2317 56.5915 21.8231 57.2565 21.0058C57.9389 20.1885 58.2802 19.0806 58.2802 17.6821C58.2802 16.3018 57.9389 15.203 57.2565 14.3857C56.574 13.5684 55.6815 13.1597 54.579 13.1597C53.459 13.1597 52.5578 13.5684 51.8753 14.3857C51.2103 15.1848 50.8778 16.2836 50.8778 17.6821C50.8778 19.0806 51.2103 20.1885 51.8753 21.0058Z" fill="white"/>
<path fill-rule="evenodd" clip-rule="evenodd" d="M42.3694 3.32553C42.8696 2.07121 43.8064 0.673493 45.4861 0.673733C46.516 0.67388 47.2794 1.22249 47.7632 1.95076C48.2109 2.62458 48.4327 3.45727 48.5446 4.22276C48.7701 5.76555 48.6191 7.54346 48.3599 8.70549C47.9946 10.3433 47.1463 12.1888 45.7599 13.5201C45.1476 14.1081 44.4328 14.5909 43.6246 14.9068C43.6251 15.5235 43.6289 16.1128 43.6325 16.6603C43.6357 17.1608 43.6387 17.6263 43.6387 18.0458C43.6387 20.0928 44.1681 21.2867 44.6958 21.7551C44.9264 21.9598 45.1768 22.0512 45.486 22.0328C45.823 22.0126 46.3135 21.8537 46.9503 21.3806L48.4053 23.4905C47.5089 24.1564 46.5717 24.5668 45.6295 24.6231C44.6596 24.681 43.7793 24.3557 43.071 23.7269C41.7207 22.5284 41.1388 20.3885 41.1388 18.0458C41.1388 17.6554 41.1358 17.2124 41.1325 16.7284C41.1295 16.2852 41.1263 15.8076 41.1249 15.305C40.7319 15.2851 40.325 15.2286 39.9049 15.1316L40.4479 12.5989C40.6882 12.6544 40.9193 12.6897 41.1417 12.7065C41.1691 11.1902 41.2348 9.59874 41.3803 8.11457C41.5519 6.36523 41.8436 4.64407 42.3694 3.32553ZM43.6588 11.9614C43.7991 11.8548 43.9335 11.7391 44.0621 11.6156C45.0017 10.7133 45.645 9.37276 45.9243 8.12039C46.1259 7.21642 46.2427 5.77354 46.0729 4.61196C45.9871 4.02526 45.8454 3.63486 45.7051 3.4236C45.6019 3.26832 45.5527 3.26832 45.4876 3.26833L45.4857 3.26833C45.4141 3.26832 45.0882 3.29239 44.6793 4.31774C44.296 5.27888 44.0324 6.69528 43.8674 8.37726C43.7542 9.53233 43.6918 10.7557 43.6588 11.9614Z" fill="white"/>
<path d="M28.9751 24.3026V11.0897H31.7313V13.3781C32.4313 11.7072 33.6388 10.8717 35.3537 10.8717C36.3687 10.8717 37.2087 11.2168 37.8737 11.9069C38.5387 12.5971 38.8712 13.5234 38.8712 14.6858C38.8712 15.3396 38.7574 16.0207 38.5299 16.729L35.9312 16.4566C36.0012 15.9117 36.0362 15.5485 36.0362 15.3668C36.0362 14.0047 35.4937 13.3236 34.4088 13.3236C33.6738 13.3236 33.0525 13.7322 32.545 14.5495C32.055 15.3487 31.81 16.4112 31.81 17.737V24.3026H28.9751Z" fill="white"/>
<path d="M24.8849 19.6164L27.1161 20.8968C25.9087 23.385 23.9224 24.6292 21.1575 24.6292C19.215 24.6292 17.6138 23.9935 16.3538 22.7221C15.0939 21.4326 14.4639 19.7526 14.4639 17.6821C14.4639 15.648 15.0764 13.9861 16.3013 12.6966C17.5438 11.4071 19.1013 10.7623 20.9738 10.7623C22.8287 10.7623 24.2899 11.3798 25.3574 12.6149C26.4424 13.8317 26.9849 15.4573 26.9849 17.4914C26.9849 17.9455 26.9761 18.2361 26.9586 18.3632H17.4563C17.5438 19.5619 17.9113 20.5063 18.5588 21.1965C19.2238 21.8867 20.0988 22.2317 21.1837 22.2317C22.7762 22.2317 24.0099 21.36 24.8849 19.6164ZM20.895 13.078C19.9675 13.078 19.1975 13.3686 18.585 13.9498C17.9726 14.531 17.6051 15.3301 17.4826 16.3472H24.0712C23.9837 15.2938 23.6687 14.4856 23.1262 13.9225C22.6012 13.3595 21.8575 13.078 20.895 13.078Z" fill="white"/>
<path fill-rule="evenodd" clip-rule="evenodd" d="M12.8272 16.6089C11.632 19.4201 9.44678 22.7137 6.71191 24.1182L5.65457 24.6613L0.277367 14.5295L2.44745 13.2577L6.61963 21.119C8.20494 19.8628 9.64642 17.6893 10.5585 15.5439C11.1011 14.2677 11.3952 13.1402 11.4451 12.384C11.4571 12.2025 11.4535 12.062 11.4425 11.9594C11.4318 11.8604 11.4164 11.8181 11.4154 11.8153C11.4153 11.8151 11.4153 11.8151 11.4154 11.8153C11.4396 11.8735 11.5701 12.0434 11.7755 12.0716L12.0967 9.48244C12.8882 9.59085 13.4249 10.1259 13.6927 10.7709C13.9295 11.3412 13.962 11.9877 13.9239 12.5646C13.8462 13.743 13.4326 15.1849 12.8272 16.6089Z" fill="white"/>
<path fill-rule="evenodd" clip-rule="evenodd" d="M7.34619 13.9198C7.34385 11.4859 9.49862 9.1249 12.1071 9.48217L11.786 12.0713C10.8033 11.9367 9.82997 12.911 9.83094 13.9172C9.83132 14.31 9.86114 14.858 10.4835 15.286C10.7799 15.4898 11.2127 15.7216 11.786 15.915C12.3133 16.0928 12.9593 16.2382 13.7271 16.2995L12.9582 18.3542C11.4311 18.2113 10.2441 17.8335 9.32396 17.2008C8.04544 16.3216 7.34747 15.2471 7.34619 13.9198Z" fill="white"/>
</svg>
