<svg width="48" height="48" viewBox="0 0 48 48" fill="none" xmlns="http://www.w3.org/2000/svg">
<g clip-path="url(#clip0_38_13851)">
<path d="M12.8382 2.60254L16.7255 9.85842C14.7561 10.9144 13.0527 12.4046 11.7444 14.2163C10.4361 16.0279 9.55711 18.1135 9.17405 20.3151L0.523438 18.8131C1.21112 15.3536 2.67737 12.096 4.81103 9.28739C6.9447 6.47873 9.68978 4.19269 12.8382 2.60254Z" fill="#FECB09"/>
<path d="M0.0859454 23.3301C0.0846962 21.8137 0.231369 20.3009 0.52388 18.813L9.17449 20.315C8.83693 22.2718 8.89559 24.2764 9.34699 26.21L0.619208 28.2658C0.263597 26.6447 0.0847948 24.9898 0.0859454 23.3301Z" fill="#F39023"/>
<path d="M11.2802 30.7765L3.66606 35.6556C2.22487 33.3899 1.19289 30.8886 0.617188 28.2658L9.34497 26.21C9.72566 27.8311 10.3801 29.3754 11.2802 30.7765Z" fill="#F7A521"/>
<path d="M16.995 35.9536L11.3993 46.9351C7.37803 45.9164 3.55455 44.2348 0.0859375 41.9595C0.0859375 41.9595 3.61858 41.2271 7.46372 40.2329C6.00973 38.874 4.7343 37.3359 3.66808 35.6555L11.2822 30.7764C12.6952 32.9769 14.6665 34.7634 16.995 35.9536Z" fill="#EC6727"/>
<path d="M23.6769 37.5546V47.7917C19.566 48.2547 15.4052 47.9645 11.3984 46.9351L16.9942 35.9536C19.0635 37.009 21.354 37.5577 23.6769 37.5546Z" fill="#F7A521"/>
<path d="M31.312 35.4241L36.0836 43.2953C32.3673 45.763 28.1141 47.3049 23.6797 47.7918V37.5548C26.3711 37.5587 29.0117 36.8215 31.312 35.4241Z" fill="#8EC044"/>
<path d="M38.3956 22.8353C38.396 21.9108 38.31 20.9882 38.1386 20.0797L46.6903 18.4497C47.3181 21.5507 47.3107 24.7467 46.6687 27.8448C46.0267 30.9428 44.7633 33.8786 42.9549 36.4747C41.1107 39.1587 38.7787 41.4723 36.0803 43.2952L31.3086 35.424C33.473 34.1125 35.2624 32.2648 36.5039 30.0596C37.7454 27.8543 38.3969 25.366 38.3956 22.8353Z" fill="#BED137"/>
<path d="M11.4922 15.355L21.6268 30.8585H27.7196C28.36 27.343 29.2695 23.8818 30.4401 20.5055C32.6511 14.1337 36.6578 6.59284 47.8121 1.9629C47.8121 1.9629 31.1581 0.454779 23.1952 21.6288L19.2741 15.355L11.4922 15.355Z" fill="#67B547"/>
<path d="M40.1592 6.32712C43.4858 9.63406 45.7581 13.8525 46.689 18.4499L38.1374 20.0799C37.6025 17.2648 36.2554 14.6678 34.2623 12.6091C35.8767 10.2111 37.868 8.08974 40.1592 6.32712ZM23.6751 8.11624C25.9859 8.113 28.2647 8.65612 30.3256 9.7013C32.4324 7.4279 34.9423 5.56465 37.7282 4.20596C37.2581 3.84727 36.7715 3.50262 36.2685 3.17202C32.4572 0.674546 27.0351 0.000137003 23.8247 0.000137003C20.0076 -0.0127171 16.2418 0.87911 12.8359 2.60253L16.7232 9.85841C18.8607 8.71138 21.2493 8.11276 23.6751 8.11624Z" fill="#DFDE2A"/>
</g>
<defs>
<clipPath id="clip0_38_13851">
<rect width="48" height="48" fill="white"/>
</clipPath>
</defs>
</svg>
