<svg width="64" height="58" viewBox="0 0 64 58" fill="none" xmlns="http://www.w3.org/2000/svg">
<path d="M30.5889 28.3889C31.3667 29.2112 32.6333 29.2112 33.4222 28.3889L45.5222 15.7001C49.0333 12.0112 48.8333 5.90006 44.9 2.50006C41.4778 -0.466605 36.3778 0.0667284 33.2444 3.35562L32 4.65562L30.7667 3.36673C27.6333 0.0667282 22.5333 -0.466605 19.1111 2.50006C15.1889 5.90006 14.9778 12.0112 18.4889 15.7001L30.5889 28.3889ZM62.8111 37.0112C61.5 35.8223 59.4556 35.9001 58.0778 37.0112L47.8111 45.2223C46.5555 46.2334 44.9889 46.7778 43.3667 46.7778H30.2222C29.2444 46.7778 28.4444 45.9778 28.4444 45.0001C28.4444 44.0223 29.2444 43.2223 30.2222 43.2223H38.9222C40.6889 43.2223 42.3333 42.0112 42.6222 40.2667C42.9889 38.0445 41.2778 36.1112 39.1111 36.1112H21.3333C18.3333 36.1112 15.4333 37.1445 13.1 39.0334L7.93333 43.2223H1.77778C0.8 43.2223 0 44.0223 0 45.0001V55.6667C0 56.6445 0.8 57.4445 1.77778 57.4445H41.4222C43.0333 57.4445 44.6 56.9001 45.8667 55.8889L62.6667 42.4445C64.3555 41.1001 64.4889 38.5223 62.8111 37.0112Z" fill="url(#paint0_linear_38_12263)"/>
<defs>
<linearGradient id="paint0_linear_38_12263" x1="42.669" y1="28.9989" x2="50.3893" y2="-1.06247" gradientUnits="userSpaceOnUse">
<stop stop-color="#EE376E"/>
<stop offset="1" stop-color="#EDF936"/>
</linearGradient>
</defs>
</svg>
