<svg width="64" height="40" viewBox="0 0 64 40" fill="none" xmlns="http://www.w3.org/2000/svg">
<path d="M62.234 9.72005L34.34 1.15005C32.82 0.683055 31.18 0.683055 29.661 1.15005L1.76599 9.72005C-0.588012 10.4431 -0.588012 13.5561 1.76599 14.2791L6.62899 15.7731C5.56199 17.0921 4.90599 18.7011 4.84099 20.4631C3.87799 21.0151 3.19999 22.0111 3.19999 23.2001C3.19999 24.2781 3.76799 25.1851 4.58599 25.7651L2.03299 37.2531C1.81099 38.2521 2.57099 39.2001 3.59399 39.2001H9.20499C10.229 39.2001 10.989 38.2521 10.767 37.2531L8.21399 25.7651C9.03199 25.1851 9.59999 24.2781 9.59999 23.2001C9.59999 22.0431 8.95299 21.0751 8.03399 20.5131C8.10999 19.0111 8.87799 17.6831 10.103 16.8411L29.66 22.8501C30.566 23.1281 32.304 23.4751 34.339 22.8501L62.234 14.2801C64.589 13.5561 64.589 10.4441 62.234 9.72005ZM35.279 25.9091C32.426 26.7851 29.995 26.3011 28.72 25.9091L14.218 21.4541L12.8 32.8001C12.8 36.3351 21.396 39.2001 32 39.2001C42.604 39.2001 51.2 36.3351 51.2 32.8001L49.782 21.4531L35.279 25.9091Z" fill="url(#paint0_linear_38_14029)"/>
<defs>
<linearGradient id="paint0_linear_38_14029" x1="42.667" y1="19.9999" x2="46.3071" y2="-0.997993" gradientUnits="userSpaceOnUse">
<stop stop-color="#EE376E"/>
<stop offset="1" stop-color="#EDF936"/>
</linearGradient>
</defs>
</svg>
