<svg width="64" height="58" viewBox="0 0 64 58" fill="none" xmlns="http://www.w3.org/2000/svg">
<path d="M63.9778 28.9444C63.9778 30.9444 62.3111 32.5111 60.4222 32.5111H56.8667L56.9444 50.3C56.9556 54.2444 53.7667 57.4444 49.8333 57.4444H36.2667L32 50.3333L40.9778 42.8555C41.8444 42.1222 41.8333 40.7889 40.9444 40.0889L27.8444 29.8C26.1222 28.5222 24.0889 30.5667 25.3111 32.2444L32 41.4444L22.5 49.3555C21.8333 49.9222 21.5667 50.7889 22.1222 51.6444L25.6 57.4444H14.2333C10.3056 57.4444 7.12111 54.2555 7.12111 50.3333V32.5111H3.56111C1.55778 32.5111 0 30.9444 0 28.9444C0 27.9444 0.333778 27.0555 1.11222 26.2778L29.6 1.44621C30.3778 0.666875 31.2667 0.555542 32.0444 0.555542C32.8222 0.555542 33.7111 0.778209 34.3889 1.33488L46.2222 11.7444V7.66665C46.2222 5.70332 47.8111 4.1111 49.7778 4.1111H53.3333C55.3 4.1111 56.8889 5.70332 56.8889 7.66665V21.1111L62.7556 26.2778C63.6444 27.0555 64.1 27.9444 63.9778 28.9444Z" fill="url(#paint0_linear_38_14001)"/>
<defs>
<linearGradient id="paint0_linear_38_14001" x1="42.6649" y1="29" x2="50.3852" y2="-1.05988" gradientUnits="userSpaceOnUse">
<stop stop-color="#EE376E"/>
<stop offset="1" stop-color="#EDF936"/>
</linearGradient>
</defs>
</svg>
