<svg width="64" height="40" viewBox="0 0 64 40" fill="none" xmlns="http://www.w3.org/2000/svg">
<path d="M43.47 0.800049H34.88C34.08 0.800049 33.31 1.10005 32.72 1.64005L22.89 10.64C22.88 10.65 22.87 10.67 22.86 10.68C21.2 12.24 21.23 14.73 22.65 16.28C23.92 17.67 26.59 18.04 28.26 16.55C28.27 16.54 28.29 16.54 28.3 16.53L36.29 9.21005C36.94 8.62005 37.96 8.66005 38.55 9.31005C39.15 9.96005 39.1 10.97 38.45 11.57L35.84 13.96L50.4 25.78C50.69 26.02 50.95 26.28 51.19 26.55V7.20005L45.73 1.74005C45.14 1.14005 44.32 0.800049 43.47 0.800049ZM54.4 7.22005V29.6101C54.4 31.3801 55.83 32.8101 57.6 32.8101H64V7.22005H54.4ZM59.2 29.6101C58.32 29.6101 57.6 28.89 57.6 28.01C57.6 27.1301 58.32 26.41 59.2 26.41C60.08 26.41 60.8 27.1301 60.8 28.01C60.8 28.89 60.08 29.6101 59.2 29.6101ZM0 32.8H6.4C8.17 32.8 9.6 31.37 9.6 29.6V7.22005H0V32.8ZM4.8 26.41C5.68 26.41 6.4 27.1301 6.4 28.01C6.4 28.89 5.68 29.6101 4.8 29.6101C3.92 29.6101 3.2 28.89 3.2 28.01C3.2 27.1201 3.92 26.41 4.8 26.41ZM48.39 28.2701L33.46 16.15L30.46 18.9C27.49 21.61 22.94 21.35 20.29 18.4601C17.6 15.5201 17.81 10.97 20.73 8.29005L28.91 0.800049H20.53C19.68 0.800049 18.87 1.14005 18.27 1.74005L12.8 7.20005V29.59H14.63L23.68 37.78C26.42 40.01 30.45 39.59 32.68 36.85L32.7 36.83L34.49 38.38C36.08 39.68 38.43 39.43 39.72 37.84L42.86 33.98L43.4 34.4201C44.77 35.5301 46.79 35.33 47.9 33.9501L48.85 32.78C49.97 31.4 49.76 29.3901 48.39 28.2701Z" fill="url(#paint0_linear_38_14020)"/>
<defs>
<linearGradient id="paint0_linear_38_14020" x1="42.6667" y1="20.007" x2="46.3093" y2="-0.997958" gradientUnits="userSpaceOnUse">
<stop stop-color="#EE376E"/>
<stop offset="1" stop-color="#EDF936"/>
</linearGradient>
</defs>
</svg>
