<svg width="80" height="56" viewBox="0 0 80 56" fill="none" xmlns="http://www.w3.org/2000/svg">
<path d="M77.645 2.8075C72.7962 0.77375 67.9437 1.50345e-07 63.0938 1.50345e-07C47.6975 -0.00124985 32.3025 7.7925 16.9062 7.7925C13.045 7.7925 9.18625 7.3025 5.325 6.0775C4.89125 5.94 4.45625 5.875 4.03125 5.875C1.88 5.875 0 7.54 0 9.85125V49.5087C0 51.0875 0.90375 52.5837 2.355 53.1912C7.20375 55.2262 12.0562 56 16.9062 56C32.3025 56 47.6988 48.2062 63.095 48.2062C66.9563 48.2062 70.815 48.6962 74.6762 49.9212C75.11 50.0587 75.545 50.1237 75.97 50.1237C78.1213 50.1237 80.0013 48.4587 80.0013 46.1475V6.49125C80 4.91125 79.0962 3.41625 77.645 2.8075ZM6 12.5275C8.515 13.1575 11.14 13.4737 13.84 13.6437C13.105 17.3175 9.875 20.0862 6 20.0862V12.5275ZM6 48.1525V42.18C10.2962 42.18 13.7725 45.5887 13.9637 49.855C11.1475 49.6287 8.515 49.0662 6 48.1525ZM40 40C34.4762 40 30 34.6262 30 28C30 21.3725 34.4775 16 40 16C45.5225 16 50 21.3725 50 28C50 34.6287 45.5212 40 40 40ZM74 43.4725C71.81 42.9237 69.5362 42.6162 67.21 42.4175C67.9437 39.1575 70.6475 36.6825 74 36.2575V43.4725ZM74 13.9587C70.1387 13.47 67.1425 10.2463 67.0238 6.265C69.4662 6.53625 71.785 7.04375 74 7.8475V13.9587Z" fill="url(#paint0_linear_38_13940)"/>
<defs>
<linearGradient id="paint0_linear_38_13940" x1="53.3342" y1="28" x2="59.4627" y2="-2.30258" gradientUnits="userSpaceOnUse">
<stop stop-color="#EE376E"/>
<stop offset="1" stop-color="#EDF936"/>
</linearGradient>
</defs>
</svg>
