<svg width="48" height="48" viewBox="0 0 48 48" fill="none" xmlns="http://www.w3.org/2000/svg">
<path d="M13.6567 13.6567C16.7805 10.5329 16.7805 5.46663 13.6567 2.34284C10.5329 -0.780948 5.46663 -0.780948 2.34284 2.34284C-0.780948 5.46663 -0.780948 10.5329 2.34284 13.6567C5.46788 16.7818 10.5329 16.7818 13.6567 13.6567ZM45.6572 34.3433C42.5334 31.2195 37.467 31.2195 34.3433 34.3433C31.2195 37.467 31.2195 42.5334 34.3433 45.6572C37.467 48.7809 42.5334 48.7809 45.6572 45.6572C48.7822 42.5334 48.7822 37.4683 45.6572 34.3433ZM45.4147 5.41413L42.5871 2.5866C41.0246 1.02408 38.4921 1.02408 36.9308 2.5866L2.5866 36.9308C1.02408 38.4933 1.02408 41.0258 2.5866 42.5871L5.41413 45.4147C6.97665 46.9772 9.50919 46.9772 11.0705 45.4147L45.4147 11.0705C46.9772 9.50919 46.9772 6.97665 45.4147 5.41413Z" fill="url(#paint0_linear_38_11567)"/>
<defs>
<linearGradient id="paint0_linear_38_11567" x1="32.0006" y1="24" x2="39.21" y2="-0.9531" gradientUnits="userSpaceOnUse">
<stop stop-color="#8DF798"/>
<stop offset="0.4375" stop-color="#EDF936"/>
</linearGradient>
</defs>
</svg>
