<svg width="64" height="58" viewBox="0 0 64 58" fill="none" xmlns="http://www.w3.org/2000/svg">
<path d="M62.2229 25.4443H58.9451C57.9673 23.2221 56.5451 21.2554 54.7896 19.611L56.8896 11.2221H53.334C50.0673 11.2221 47.1784 12.7221 45.2229 15.0332C44.3784 14.911 43.5451 14.7776 42.6673 14.7776H28.4451C19.8451 14.7776 12.6784 20.8888 11.0229 28.9999H6.22289C4.57845 28.9999 3.27845 27.4999 3.61178 25.7999C3.85622 24.5332 5.04511 23.6665 6.334 23.6665H6.44511C6.81178 23.6665 7.11178 23.3665 7.11178 22.9999V20.7776C7.11178 20.411 6.81178 20.111 6.44511 20.111C3.27845 20.111 0.456225 22.3776 0.0562245 25.511C-0.432664 29.311 2.52289 32.5554 6.22289 32.5554H10.6673C10.6673 38.3554 13.4896 43.4554 17.7784 46.6999V55.6665C17.7784 56.6443 18.5784 57.4443 19.5562 57.4443H26.6673C27.6451 57.4443 28.4451 56.6443 28.4451 55.6665V50.3332H42.6673V55.6665C42.6673 56.6443 43.4673 57.4443 44.4451 57.4443H51.5562C52.534 57.4443 53.334 56.6443 53.334 55.6665V46.6999C54.6451 45.711 55.8118 44.5443 56.8118 43.2221H62.2229C63.2007 43.2221 64.0007 42.4221 64.0007 41.4443V27.2221C64.0007 26.2443 63.2007 25.4443 62.2229 25.4443ZM48.0007 32.5554C47.0229 32.5554 46.2229 31.7554 46.2229 30.7776C46.2229 29.7999 47.0229 28.9999 48.0007 28.9999C48.9784 28.9999 49.7784 29.7999 49.7784 30.7776C49.7784 31.7554 48.9784 32.5554 48.0007 32.5554ZM28.4451 11.2221H42.6673C43.2673 11.2221 43.8562 11.2665 44.434 11.311C44.434 11.2776 44.4451 11.2554 44.4451 11.2221C44.4451 5.3332 39.6673 0.55542 33.7784 0.55542C27.8896 0.55542 23.1118 5.3332 23.1118 11.2221C23.1118 11.4554 23.1673 11.6776 23.1784 11.911C24.8673 11.4776 26.6229 11.2221 28.4451 11.2221Z" fill="url(#paint0_linear_38_12290)"/>
<defs>
<linearGradient id="paint0_linear_38_12290" x1="42.6682" y1="28.9999" x2="50.3885" y2="-1.06002" gradientUnits="userSpaceOnUse">
<stop stop-color="#EE376E"/>
<stop offset="1" stop-color="#EDF936"/>
</linearGradient>
</defs>
</svg>
