<svg width="48" height="48" viewBox="0 0 48 48" fill="none" xmlns="http://www.w3.org/2000/svg">
<path d="M13.6561 13.6562C16.7798 10.5324 16.7798 5.4662 13.6561 2.34245C10.5323 -0.781304 5.46607 -0.781304 2.34232 2.34245C-0.781426 5.4662 -0.781426 10.5324 2.34232 13.6562C5.46732 16.7812 10.5323 16.7812 13.6561 13.6562ZM45.6561 34.3424C42.5323 31.2187 37.4661 31.2187 34.3423 34.3424C31.2186 37.4662 31.2186 42.5324 34.3423 45.6562C37.4661 48.7799 42.5323 48.7799 45.6561 45.6562C48.7811 42.5324 48.7811 37.4674 45.6561 34.3424ZM45.4136 5.4137L42.5861 2.5862C41.0236 1.0237 38.4911 1.0237 36.9298 2.5862L2.58607 36.9299C1.02357 38.4924 1.02357 41.0249 2.58607 42.5862L5.41357 45.4137C6.97607 46.9762 9.50857 46.9762 11.0698 45.4137L45.4136 11.0699C46.9761 9.5087 46.9761 6.9762 45.4136 5.4137Z" fill="url(#paint0_linear_38_13992)"/>
<defs>
<linearGradient id="paint0_linear_38_13992" x1="31.9997" y1="23.9993" x2="39.209" y2="-0.953454" gradientUnits="userSpaceOnUse">
<stop stop-color="#EE376E"/>
<stop offset="1" stop-color="#EDF936"/>
</linearGradient>
</defs>
</svg>
