<svg width="60" height="80" viewBox="0 0 60 80" fill="none" xmlns="http://www.w3.org/2000/svg">
<path d="M45 40H15V50H45V40ZM58.9062 16.4062L43.6094 1.09375C42.9062 0.390625 41.9531 0 40.9531 0H40V20H60V19.0469C60 18.0625 59.6094 17.1094 58.9062 16.4062ZM35 21.25V0H3.75C1.67188 0 0 1.67188 0 3.75V76.25C0 78.3281 1.67188 80 3.75 80H56.25C58.3281 80 60 78.3281 60 76.25V25H38.75C36.6875 25 35 23.3125 35 21.25ZM10 11.25C10 10.5594 10.5594 10 11.25 10H23.75C24.4406 10 25 10.5594 25 11.25V13.75C25 14.4406 24.4406 15 23.75 15H11.25C10.5594 15 10 14.4406 10 13.75V11.25ZM10 21.25C10 20.5594 10.5594 20 11.25 20H23.75C24.4406 20 25 20.5594 25 21.25V23.75C25 24.4406 24.4406 25 23.75 25H11.25C10.5594 25 10 24.4406 10 23.75V21.25ZM50 68.75C50 69.4406 49.4406 70 48.75 70H36.25C35.5594 70 35 69.4406 35 68.75V66.25C35 65.5594 35.5594 65 36.25 65H48.75C49.4406 65 50 65.5594 50 66.25V68.75ZM50 37.5V52.5C50 53.8812 48.8812 55 47.5 55H12.5C11.1187 55 10 53.8812 10 52.5V37.5C10 36.1188 11.1187 35 12.5 35H47.5C48.8812 35 50 36.1188 50 37.5Z" fill="url(#paint0_linear_38_13925)"/>
<defs>
<linearGradient id="paint0_linear_38_13925" x1="40" y1="40" x2="55.1154" y2="0.762873" gradientUnits="userSpaceOnUse">
<stop stop-color="#EE376E"/>
<stop offset="1" stop-color="#EDF936"/>
</linearGradient>
</defs>
</svg>
