<svg width="78" height="78" viewBox="0 0 78 78" fill="none" xmlns="http://www.w3.org/2000/svg">
<path d="M39 0.25C17.5938 0.25 0.25 17.5938 0.25 39C0.25 60.4062 17.5938 77.75 39 77.75C60.4062 77.75 77.75 60.4062 77.75 39C77.75 17.5938 60.4062 0.25 39 0.25ZM39 15.25C46.5938 15.25 52.75 21.4062 52.75 29C52.75 36.5938 46.5938 42.75 39 42.75C31.4062 42.75 25.25 36.5938 25.25 29C25.25 21.4062 31.4062 15.25 39 15.25ZM39 69C29.8281 69 21.6094 64.8438 16.1094 58.3438C19.0469 52.8125 24.7969 49 31.5 49C31.875 49 32.25 49.0625 32.6094 49.1719C34.6406 49.8281 36.7656 50.25 39 50.25C41.2344 50.25 43.375 49.8281 45.3906 49.1719C45.75 49.0625 46.125 49 46.5 49C53.2031 49 58.9531 52.8125 61.8906 58.3438C56.3906 64.8438 48.1719 69 39 69Z" fill="url(#paint0_linear_38_13910)"/>
<defs>
<linearGradient id="paint0_linear_38_13910" x1="51.9167" y1="39" x2="63.557" y2="-1.28874" gradientUnits="userSpaceOnUse">
<stop stop-color="#EE376E"/>
<stop offset="1" stop-color="#EDF936"/>
</linearGradient>
</defs>
</svg>
