<svg width="48" height="48" viewBox="0 0 48 48" fill="none" xmlns="http://www.w3.org/2000/svg">
<path d="M20.9765 12.2578L14.4956 1.45687C14.2291 1.01256 13.8521 0.64483 13.4012 0.389516C12.9504 0.134202 12.4412 6.36118e-06 11.9231 0H1.50274C0.288682 0 -0.421943 1.36594 0.273682 2.36063L10.7052 17.2631C13.4915 14.6597 17.0352 12.8728 20.9765 12.2578ZM46.4971 0H36.0768C35.0231 0 34.0462 0.553125 33.5043 1.45687L27.0234 12.2578C30.9646 12.8728 34.5084 14.6597 37.2946 17.2622L47.7262 2.36063C48.4218 1.36594 47.7112 0 46.4971 0ZM23.9999 15C14.8874 15 7.49993 22.3875 7.49993 31.5C7.49993 40.6125 14.8874 48 23.9999 48C33.1124 48 40.4999 40.6125 40.4999 31.5C40.4999 22.3875 33.1124 15 23.9999 15ZM32.6737 29.7431L29.1177 33.2081L29.9587 38.1038C30.1087 38.9813 29.1843 39.6516 28.3977 39.2372L23.9999 36.9263L19.6031 39.2372C18.8156 39.6544 17.8921 38.9803 18.0421 38.1038L18.8831 33.2081L15.3271 29.7431C14.6877 29.1206 15.0412 28.0341 15.9224 27.9066L20.8377 27.1903L23.0343 22.7353C23.2321 22.3341 23.6146 22.1362 23.9981 22.1362C24.3834 22.1362 24.7687 22.3369 24.9665 22.7353L27.1631 27.1903L32.0784 27.9066C32.9596 28.0341 33.3131 29.1206 32.6737 29.7431Z" fill="black"/>
</svg>
